<svg width="200" height="60" viewBox="0 0 200 60" xmlns="http://www.w3.org/2000/svg">
  <defs>
    <linearGradient id="orangeGradAdmin" x1="0%" y1="0%" x2="100%" y2="100%">
      <stop offset="0%" style="stop-color:#FF6B35;stop-opacity:1" />
      <stop offset="100%" style="stop-color:#FFA500;stop-opacity:1" />
    </linearGradient>
  </defs>
  
  <!-- Circular Arrow Background -->
  <path d="M 30 15 A 20 20 0 1 1 15 30 L 12 27 L 20 20 Z" fill="url(#orangeGradAdmin)" stroke="#2C3E50" stroke-width="2"/>
  
  <!-- Scooter Body -->
  <ellipse cx="25" cy="30" rx="10" ry="5" fill="#FF6B35" stroke="#2C3E50" stroke-width="1.2"/>
  <!-- Scooter Wheels -->
  <circle cx="20" cy="33" r="2.5" fill="#2C3E50"/>
  <circle cx="30" cy="33" r="2.5" fill="#2C3E50"/>
  <!-- Motion Lines -->
  <line x1="15" y1="33" x2="17" y2="33" stroke="#2C3E50" stroke-width="1"/>
  
  <!-- Delivery Box with Wings -->
  <rect x="28" y="24" width="6" height="6" fill="#FF6B35" stroke="#2C3E50" stroke-width="0.8"/>
  <path d="M 26 26 L 24 24 L 26 22 L 28 24 Z" fill="#FFA500" stroke="#2C3E50" stroke-width="0.6"/>
  
  <!-- Fork and Spoon Rider -->
  <circle cx="23" cy="25" r="3" fill="#FF6B35" stroke="#2C3E50" stroke-width="0.8"/>
  <!-- Fork -->
  <path d="M 21 22 L 21 25 M 21 23 L 19 24 M 21 23 L 23 24" stroke="#FFA500" stroke-width="1.2" stroke-linecap="round" fill="none"/>
  <!-- Spoon -->
  <path d="M 25 22 L 25 25 M 25 25 Q 25 27 23 28" stroke="#FFA500" stroke-width="1.2" stroke-linecap="round" fill="none"/>
  
  <!-- Food Express Text -->
  <text x="55" y="24" font-family="Arial, sans-serif" font-size="20" font-weight="bold" fill="#2C3E50">Food</text>
  <text x="55" y="42" font-family="Arial, sans-serif" font-size="20" font-weight="bold" fill="#FF6B35">Express</text>
</svg>
